<?xml version="1.0" encoding="UTF-8"?>
<svg width="60px" height="53px" viewBox="0 0 60 53" version="1.1" xmlns="http://www.w3.org/2000/svg" xmlns:xlink="http://www.w3.org/1999/xlink">
    <!-- Generator: Sketch 64 (93537) - https://sketch.com -->
    <title>give icon@2x</title>
    <desc>Created with Sketch.</desc>
    <g id="Final" stroke="none" stroke-width="1" fill="none" fill-rule="evenodd">
        <g id="Home-contribution-message-box-inside-column-Copy-2" transform="translate(-236.000000, -355.000000)">
            <g id="contribute-menu-left" transform="translate(0.000000, 332.000000)">
                <g id="give-icon" transform="translate(236.000000, 20.000000)">
                    <g>
                        <path d="M57.9825529,41.5862069 L40.3203918,51.5172414 C38.2093765,53.0344828 35.6761582,53.9310345 33.0725727,53.9310345 L15.8326146,53.9310345 L15.8326146,34.2758621 C15.8326146,34.2758621 31.0319246,34.2758621 31.8059635,34.2758621 C34.0577131,34.2758621 35.8872597,36.0689655 35.8872597,38.2758621 C35.8872597,40.2068966 34.4799162,41.7931034 32.6503696,42.137931 L40.9536964,42.137931 L53.9716239,34.7586207 C55.8715376,33.6551724 58.3343888,34.3448276 59.4602636,36.2068966 L59.4602636,36.2068966 C60.5861384,38.137931 59.8824667,40.4827586 57.9825529,41.5862069 Z M10.9772794,32.2068966 L1.68881222,32.2068966 C0.774038935,32.2068966 0,32.9655172 0,33.862069 L0,54.3448276 C0,55.2413793 0.774038935,56 1.68881222,56 L10.9772794,56 C11.8920527,56 12.6660917,55.2413793 12.6660917,54.3448276 L12.6660917,33.862069 C12.6660917,32.9655172 11.8920527,32.2068966 10.9772794,32.2068966" id="Shape" fill="#D2CC7E" fill-rule="nonzero"></path>
                        <path d="M29.2727452,5.17241379 L31.8059635,7.72413793 C32.4392681,8.34482759 33.5651429,8.34482759 34.1984475,7.72413793 L36.7316658,5.17241379 C37.9279078,4 39.4759857,3.31034483 41.1647979,3.31034483 C42.8536101,3.31034483 44.401688,3.93103448 45.59793,5.17241379 C48.0607811,7.65517241 48.0607811,11.6551724 45.59793,14.137931 L33.0022055,26.7586207 C31.5244948,25.1034483 21.602723,15.2413793 20.406481,14.137931 C19.1398718,12.8965517 18.4362001,11.0344828 18.5065673,9.17241379 C18.5769344,7.5862069 19.210239,6.20689655 20.2657466,5.31034483 C21.5323558,4.20689655 23.2915352,3.51724138 25.0507146,3.51724138 C26.5987925,3.51724138 28.0765032,4 29.2727452,5.17241379 Z" id="Path" fill="#C55701" fill-rule="nonzero"></path>
                    </g>
                </g>
            </g>
        </g>
    </g>
</svg>
