<?xml version="1.0" encoding="UTF-8"?>
<svg width="23px" height="23px" viewBox="0 0 23 23" version="1.1" xmlns="http://www.w3.org/2000/svg" xmlns:xlink="http://www.w3.org/1999/xlink">
    <!-- Generator: Sketch 47.1 (45422) - http://www.bohemiancoding.com/sketch -->
    <title>globe icon</title>
    <desc>Created with Sketch.</desc>
    <defs></defs>
    <g id="Headers" stroke="none" stroke-width="1" fill="none" fill-rule="evenodd">
        <g id="Scroll-Down---logged-in" transform="translate(-122.000000, -35.000000)">
            <g id="Group" transform="translate(122.000000, 35.000000)">
                <g id="language-switcher-copy-2">
                    <path d="M0,11.5 C0,9.93471445 0.303469053,8.443323 0.910416667,7.02578117 C1.51736428,5.60823935 2.33393573,4.38637661 3.36015617,3.36015617 C4.38637661,2.33393573 5.61023605,1.51736428 7.03177099,0.910416667 C8.45330561,0.303469053 9.94270067,0 11.5,0 C13.0572993,0 14.5466944,0.303469053 15.968229,0.910416667 C17.3897639,1.51736428 18.6136234,2.33393573 19.6398438,3.36015617 C20.6660643,4.38637661 21.4826357,5.60823935 22.0895833,7.02578117 C22.6965309,8.443323 23,9.93471445 23,11.5 C23,13.0572993 22.6965309,14.5466944 22.0895833,15.968229 C21.4826357,17.3897639 20.6660643,18.6136234 19.6398438,19.6398438 C18.6136234,20.6660643 17.3897639,21.4826357 15.968229,22.0895833 C14.5466944,22.6965309 13.0572993,23 11.5,23 C9.94270067,23 8.45330561,22.6965309 7.03177099,22.0895833 C5.61023605,21.4826357 4.38637661,20.6660643 3.36015617,19.6398438 C2.33393573,18.6136234 1.51736428,17.3897639 0.910416667,15.968229 C0.303469053,14.5466944 0,13.0572993 0,11.5 Z" id="Path-Copy" fill="#FFFFFF"></path>
                    <path d="M0,11.5 C0,9.93471445 0.303469053,8.443323 0.910416667,7.02578117 C1.51736428,5.60823935 2.33393573,4.38637661 3.36015617,3.36015617 C4.38637661,2.33393573 5.61023605,1.51736428 7.03177099,0.910416667 C8.45330561,0.303469053 9.94270067,0 11.5,0 C13.0572993,0 14.5466944,0.303469053 15.968229,0.910416667 C17.3897639,1.51736428 18.6136234,2.33393573 19.6398438,3.36015617 C20.6660643,4.38637661 21.4826357,5.60823935 22.0895833,7.02578117 C22.6965309,8.443323 23,9.93471445 23,11.5 C23,13.0572993 22.6965309,14.5466944 22.0895833,15.968229 C21.4826357,17.3897639 20.6660643,18.6136234 19.6398438,19.6398438 C18.6136234,20.6660643 17.3897639,21.4826357 15.968229,22.0895833 C14.5466944,22.6965309 13.0572993,23 11.5,23 C9.94270067,23 8.45330561,22.6965309 7.03177099,22.0895833 C5.61023605,21.4826357 4.38637661,20.6660643 3.36015617,19.6398438 C2.33393573,18.6136234 1.51736428,17.3897639 0.910416667,15.968229 C0.303469053,14.5466944 0,13.0572993 0,11.5 Z M2.16822901,11.5 C2.16822901,12.7458395 2.40581349,13.9357583 2.88098951,15.0697917 C3.35616552,16.2038251 3.99904097,17.1841105 4.80963549,18.0106772 C5.62022971,18.8372438 6.58254664,19.5040773 7.69661451,20.0111978 C8.81068268,20.5183184 9.98662576,20.7918402 11.224479,20.831771 C11.104687,20.6960063 11.0128474,20.4204881 10.9489583,20.0052083 C10.9329859,19.9013885 10.913021,19.699741 10.8890623,19.4002605 C10.865104,19.1007796 10.8371529,18.8751745 10.8052083,18.7234377 C10.7892359,18.6196175 10.6454874,18.1763928 10.3739583,17.39375 C10.2940968,17.1461792 10.2062506,16.9884553 10.1104167,16.9205728 C10.0145827,16.8526906 9.83090411,16.8107641 9.559375,16.7947917 C9.41562439,16.7868055 9.21198055,16.7808159 8.94843765,16.7768228 C8.68489445,16.7728297 8.46128569,16.7648438 8.27760432,16.7528645 C8.09392264,16.7408855 7.88229289,16.7229167 7.64270833,16.6989583 C7.40312377,16.675 7.19947993,16.6290803 7.03177099,16.5611978 C6.86406173,16.4933156 6.69635493,16.4054694 6.52864568,16.2976562 C6.36093673,16.1898432 6.22517417,16.044098 6.12135432,15.8604167 C6.01753416,15.6767353 5.94565977,15.4611124 5.90572901,15.2135417 C5.73003385,14.1993005 6.04148912,13.3567741 6.84010432,12.6859377 C7.24739783,12.3505191 7.67465043,12.1249137 8.121875,12.0091145 C8.56909957,11.8933153 9.09218459,11.8434026 9.69114568,11.859375 C10.0904533,11.8673612 10.4338528,11.9791654 10.7213543,12.1947917 C11.0807309,12.4902791 11.4440953,12.6460069 11.8114583,12.661979 C11.8913199,12.6699652 12.0710057,12.6859373 12.350521,12.7098957 C12.630036,12.7338543 12.8596346,12.7518228 13.0393228,12.7638022 C13.2190114,12.7757812 13.4266481,12.7657989 13.6622395,12.7338543 C13.897831,12.7019095 14.0914922,12.6460072 14.243229,12.5661457 L14.243229,12.4104167 C14.243229,12.3784721 14.2512152,12.3165803 14.2671877,12.2247395 C14.2831598,12.132899 14.2931424,12.0570315 14.2971355,11.9971355 C14.3011286,11.9372392 14.2931424,11.8753474 14.2731772,11.8114583 C14.2532116,11.7475692 14.2112851,11.6996529 14.1473957,11.6677083 C14.0755204,11.6357638 13.9078139,11.6297743 13.644271,11.6497395 C13.3807278,11.669705 13.2210072,11.6357644 13.1651043,11.5479167 C13.0213534,11.412152 13.0393219,11.2763897 13.2190105,11.140625 C13.3986988,11.0048603 13.6442691,10.8770839 13.955729,10.7572917 C14.2671892,10.6374994 14.4428819,10.5576391 14.4828123,10.5177083 C14.714411,10.2781238 14.6664946,10.1263891 14.3390623,10.0625 C14.0196166,9.99861091 13.7041682,10.0345479 13.3927083,10.1703123 C13.3288192,10.2022572 13.2769098,10.2342011 13.236979,10.2661457 C13.0932284,10.4019104 12.9494799,10.6374985 12.805729,10.9729167 C12.7657986,11.0767365 12.6919278,11.2105027 12.5841145,11.3742188 C12.4763015,11.537935 12.4024308,11.6597218 12.3625,11.7395833 C12.3385417,11.6996526 12.2946184,11.6497398 12.230729,11.5898438 C12.1668399,11.5299475 12.1229167,11.4840279 12.0989583,11.4520833 C12.0510414,11.3961801 11.9592021,11.2324668 11.8234377,10.9609377 C11.8074652,10.9289928 11.7875,10.8790803 11.7635417,10.8111978 C11.7395833,10.7433156 11.7196181,10.6894098 11.7036457,10.649479 C11.6876736,10.6095486 11.6637155,10.5596358 11.631771,10.4997395 C11.5998261,10.4398435 11.5678822,10.3999134 11.5359377,10.3799478 C11.5039928,10.3599826 11.4600699,10.338021 11.4041667,10.3140623 C11.3482635,10.290104 11.2923615,10.2940971 11.2364583,10.3260417 C11.2204859,10.4937509 11.2763882,10.6814226 11.4041667,10.8890623 C11.5319452,11.0967024 11.5958333,11.2564229 11.5958333,11.368229 C11.6038195,11.5838552 11.5559032,11.6816841 11.4520833,11.6617188 C11.3482635,11.6417533 11.2324658,11.5359386 11.1046877,11.344271 C11.0727428,11.296354 11.0288199,11.2224832 10.9729167,11.1226562 C10.9170135,11.0228294 10.8730905,10.950955 10.8411457,10.9070312 C10.8092011,10.8631073 10.7612851,10.8131949 10.6973957,10.7572917 C10.6335066,10.7013885 10.5596358,10.6674478 10.4757812,10.6554688 C10.3919265,10.6434895 10.2940977,10.6454859 10.1822917,10.6614583 C9.97465165,10.6934029 9.81093796,10.7532983 9.69114568,10.8411457 C9.65920113,10.8651043 9.59930607,10.9289925 9.51145833,11.0328123 C9.4236106,11.1366325 9.34375031,11.2005207 9.271875,11.224479 C9.22395803,11.5039943 9.00833517,11.6357641 8.625,11.6197917 C8.60902757,11.6197917 8.55911512,11.6177953 8.47526049,11.6138022 C8.39140587,11.6098091 8.32352459,11.6058159 8.27161451,11.6018228 C8.21970473,11.5978297 8.15781296,11.5898438 8.08593765,11.5778645 C8.01406204,11.5658855 7.95416697,11.5479167 7.90625,11.5239583 C7.85833303,11.5 7.82239599,11.4680558 7.79843765,11.428125 C7.75850689,11.3482635 7.77647541,11.1745672 7.85234383,10.9070312 C7.92821224,10.6394952 7.99808992,10.4657989 8.06197901,10.3859377 C8.12586841,10.3060761 8.21171821,10.2521703 8.31953117,10.2242188 C8.42734444,10.1962671 8.58307192,10.1862848 8.78671883,10.194271 C8.99036573,10.2022569 9.10017356,10.20625 9.11614568,10.20625 C9.14809053,10.0624994 9.10816039,9.92873323 8.99635432,9.80494784 C8.88454795,9.68116245 8.82065977,9.59930576 8.80468765,9.559375 C8.78871523,9.47152727 8.78072901,9.40564269 8.78072901,9.36171883 C8.78072901,9.31779496 8.80868015,9.28585072 8.86458333,9.26588549 C8.92048652,9.24591996 8.97239568,9.23593765 9.02031235,9.23593765 C9.06822932,9.23593765 9.12812469,9.23593765 9.2,9.23593765 C9.27187531,9.23593765 9.32378447,9.23194455 9.35572901,9.22395833 C9.65121676,9.16805515 9.89479075,9.04427191 10.0864583,8.85260432 C10.0944445,8.84461811 10.1243921,8.81866337 10.1763022,8.77473951 C10.2282119,8.73081564 10.2661457,8.70086811 10.2901043,8.68489568 C10.3140627,8.66892356 10.3559892,8.64097243 10.4158855,8.60104167 C10.4757815,8.56111091 10.5197047,8.54114568 10.5476562,8.54114568 C10.5756079,8.54114568 10.6215276,8.53116337 10.6854167,8.51119784 C10.7493058,8.49123261 10.7972221,8.49722212 10.8291667,8.52916667 C10.8611112,8.53715288 10.9090276,8.57508632 10.9729167,8.64296883 C11.0368058,8.71085103 11.0887152,8.74878477 11.1286457,8.75677099 C11.1845489,8.77274311 11.3123255,8.74479197 11.511979,8.67291667 C11.719619,8.60104136 11.8753468,8.51718796 11.9791667,8.42135432 C12.0829865,8.32552037 12.1907979,8.18177191 12.3026043,7.99010432 C12.510244,7.65468581 12.5421883,7.37118168 12.3984377,7.13958333 C12.3026037,7.00381863 12.1788202,6.95590257 12.0270833,6.99583333 C11.8753465,7.03576409 11.7595489,7.13558961 11.6796877,7.29531235 C11.655729,7.35121553 11.631771,7.43906204 11.6078123,7.55885432 C11.583854,7.67864629 11.5539065,7.78046821 11.5179688,7.86432284 C11.4820312,7.94817747 11.4321184,8.01406235 11.368229,8.06197901 C11.2883678,8.1178822 11.1605911,8.15182284 10.9848957,8.16380216 C10.8092005,8.17578117 10.673438,8.15781265 10.5776043,8.10989568 C10.5057287,8.07795113 10.4538195,8.02803868 10.421875,7.96015617 C10.3899305,7.89227397 10.3739583,7.8323786 10.3739583,7.78046883 C10.3739583,7.72855875 10.3799478,7.64670205 10.3919272,7.53489568 C10.4039062,7.42308961 10.4098957,7.35121553 10.4098957,7.31927099 C10.4098957,7.25538159 10.4178819,7.19548652 10.4338543,7.13958333 C10.4498264,7.08368015 10.467795,7.03576409 10.4877605,6.99583333 C10.5077257,6.95590257 10.5376736,6.91197932 10.5776043,6.86406235 C10.6175348,6.81614568 10.6514754,6.77821193 10.6794272,6.75026049 C10.7073786,6.72230875 10.7473087,6.68437531 10.7992188,6.63645833 C10.8511286,6.58854136 10.8930555,6.54861121 10.925,6.51666667 C11.0527785,6.38888817 11.1865443,6.29105936 11.3263022,6.22317716 C11.4660597,6.15529465 11.6237839,6.12135432 11.799479,6.12135432 C11.9751745,6.12135432 12.1149301,6.12534712 12.21875,6.13333333 C12.3225699,6.14131955 12.4882803,6.17326348 12.7158855,6.22916667 C12.9434907,6.28506985 13.0932287,6.32100689 13.1651043,6.33697901 C13.4446193,6.3928822 13.7401025,6.24913373 14.0515623,5.90572901 C14.0994793,5.84183992 14.1693573,5.77196224 14.2611978,5.69609383 C14.3530387,5.62022541 14.4169269,5.55034743 14.4528645,5.48645833 C14.4888022,5.42256924 14.506771,5.33072963 14.506771,5.21093765 C14.506771,5.09913128 14.4967884,4.90547005 14.4768228,4.62994784 C14.4568576,4.35442563 14.4428819,4.12283065 14.4348957,3.93515617 C14.4269098,3.74748169 14.4408852,3.53585195 14.4768228,3.30026049 C14.5127605,3.06466904 14.5746523,2.87100781 14.6625,2.71927099 C13.6402727,2.34392172 12.5861164,2.15625 11.5,2.15625 C10.7333297,2.15625 9.96267755,2.25607552 9.18802099,2.45572901 L9.17604167,2.515625 C9.17604167,2.81909865 9.19201379,2.99079856 9.22395833,3.03072901 C9.29583364,3.11857675 9.42760309,3.17847212 9.61927099,3.21041667 C9.81093857,3.24236121 9.99461719,3.26232644 10.1703123,3.27031235 C10.3460078,3.27829856 10.4937494,3.33220443 10.6135417,3.43203117 C10.7333339,3.53185823 10.769271,3.6815962 10.7213543,3.88125 C10.6654511,4.10486213 10.5077269,4.35442563 10.2481772,4.62994784 C9.98862707,4.90547005 9.72708456,5.13906143 9.46354167,5.33072901 C9.13610937,5.57031357 8.73680791,5.72204825 8.265625,5.78593765 C8.25763879,5.78593765 8.21171913,5.79192716 8.12786451,5.80390617 C8.04400988,5.81588549 7.98411481,5.821875 7.94817716,5.821875 C7.91223951,5.821875 7.84835103,5.82586811 7.75651049,5.83385432 C7.66466965,5.84184023 7.59279527,5.84184023 7.54088549,5.83385432 C7.48897541,5.82586811 7.42309053,5.81788189 7.34322901,5.80989568 C7.2633678,5.80190977 7.20147603,5.78793405 7.15755216,5.76796883 C7.11362829,5.74800329 7.06970504,5.72204887 7.02578117,5.69010432 C6.98185731,5.65815947 6.94991337,5.61623292 6.92994784,5.56432284 C6.90998261,5.51241307 6.9,5.45451409 6.9,5.390625 C6.90798621,5.24687439 6.97786389,5.11710133 7.10963549,5.00130216 C7.24140679,4.88550299 7.37916605,4.80164959 7.52291667,4.74973951 C7.66666728,4.69782973 7.84235999,4.63993076 8.05,4.57604167 C8.25764001,4.51215257 8.39340257,4.46822932 8.45729167,4.44427099 C8.47326409,4.24461719 8.44531296,4.11085103 8.37343765,4.04296883 C8.30156204,3.97508632 8.20373323,3.95911451 8.07994784,3.99505216 C7.95616245,4.03098981 7.82039989,4.07690947 7.67265617,4.13281235 C7.52491245,4.18871553 7.38316039,4.23663189 7.24739568,4.27656235 C7.11163128,4.31649311 6.99184084,4.3085072 6.88802099,4.25260432 C6.84809023,4.12482583 6.89400988,4.0170144 7.02578117,3.92916667 C7.15755277,3.84131893 7.23142356,3.78142387 7.24739568,3.74947901 C7.31927129,3.58177007 7.24739691,3.43003539 7.03177099,3.29427099 C6.56058777,3.54982767 6.13333517,3.83732491 5.75,4.15677099 C5.91770925,4.18072932 6.05746461,4.23263848 6.16927099,4.3125 C6.28107705,4.39236152 6.33298621,4.50815885 6.325,4.65989568 C6.325,4.7397572 6.30703148,4.81163159 6.27109383,4.87552099 C6.23515617,4.93941008 6.20121553,4.98732613 6.16927099,5.01927099 C6.13732613,5.05121553 6.08741368,5.09713519 6.01953117,5.15703117 C5.95164897,5.21692747 5.90173621,5.25885401 5.86979167,5.28281235 C5.63020711,5.50642479 5.4545144,5.71006863 5.34270833,5.89375 C5.29479136,5.96562531 5.23888909,6.13932161 5.175,6.41484383 C5.11111091,6.69036604 5.01927129,6.86406204 4.89947901,6.93593765 C4.71579764,7.03975751 4.59001769,7.04375061 4.52213549,6.94791667 C4.45425299,6.85208272 4.41232644,6.70034835 4.39635432,6.49270833 C4.39635432,6.44479136 4.39635432,6.40486121 4.39635432,6.37291667 C4.39635432,6.34097212 4.39635432,6.31302099 4.39635432,6.28906235 C4.39635432,6.26510401 4.38637171,6.24314239 4.36640617,6.22317716 C4.34644095,6.20321163 4.31649311,6.18125 4.27656235,6.15729167 C4.17274249,6.12534712 4.02500092,6.13333303 3.83333333,6.18125 C2.72325827,7.77049419 2.16822901,9.54339307 2.16822901,11.5 Z M14.2671877,13.2729167 C14.243229,13.7680579 14.4069427,14.2032967 14.7583333,14.5786457 C15.1975717,15.0338565 15.6248243,15.2973954 16.0401043,15.369271 C16.2078133,15.4012155 16.4414046,15.3892365 16.7408855,15.3333333 C17.040366,15.2774301 17.2420135,15.249479 17.3458333,15.249479 C17.3538195,15.5210084 17.1980918,15.9522541 16.8786457,16.543229 C16.5272551,17.1501766 16.259723,17.5494781 16.0760417,17.7411457 C16.0361109,17.7810764 15.9782122,17.8349823 15.9023438,17.9028645 C15.8264754,17.970747 15.7705731,18.0226562 15.7346355,18.0585938 C15.6986978,18.0945315 15.6547746,18.1444442 15.6028645,18.2083333 C15.5509547,18.2722224 15.5190105,18.3281247 15.5070312,18.3760417 C15.4950522,18.4239586 15.4890623,18.4838537 15.4890623,18.555729 C15.4890623,18.6276046 15.5050345,18.7034718 15.536979,18.7833333 C15.5529514,18.8232641 15.5868921,18.8951385 15.6388022,18.9989583 C15.6907119,19.1027782 15.7166667,19.1666667 15.7166667,19.190625 C15.7166667,19.2145833 15.7086808,19.2904508 15.6927083,19.418229 C15.66875,19.4821184 15.6368058,19.5320312 15.596875,19.5679688 C15.5569442,19.6039065 15.501042,19.6378471 15.4291667,19.6697917 C15.3572914,19.7017362 15.3053822,19.7296873 15.2734377,19.7536457 C15.201562,19.8015627 15.1077263,19.8694439 14.9919272,19.9572917 C14.876128,20.0451394 14.7723094,20.123003 14.6804688,20.1908855 C14.588628,20.2587677 14.4907992,20.3206595 14.386979,20.3765623 C16.2876831,19.7536426 17.8409663,18.6296087 19.046875,17.0044272 C20.2527837,15.3792453 20.855729,13.5444547 20.855729,11.5 C20.855729,11.29236 20.8397572,10.9968768 20.8078123,10.6135417 C20.7439233,10.7013894 20.7079862,10.7972218 20.7,10.9010417 C20.6600692,11.180557 20.6401043,11.3522566 20.6401043,11.4161457 C20.6401043,11.4720489 20.6460938,11.5858498 20.6580728,11.7575522 C20.6700522,11.9292542 20.6720486,12.0789925 20.6640623,12.206771 C20.6560764,12.3345492 20.6241322,12.4303816 20.568229,12.494271 C20.5203123,12.5501739 20.4684032,12.5821181 20.4125,12.5901043 C20.3565968,12.5980902 20.2967017,12.5821181 20.2328123,12.5421877 C20.1689233,12.5022569 20.1110246,12.4583336 20.0591145,12.4104167 C20.0072047,12.3624997 19.9473094,12.3065974 19.8794272,12.2427083 C19.8115447,12.1788192 19.7576391,12.134896 19.7177083,12.1109377 C19.5739577,12.0151037 19.4581601,11.9412329 19.3703123,11.8893228 C19.2824649,11.8374131 19.1766499,11.7894967 19.0528645,11.7455728 C18.9290791,11.701649 18.8072923,11.6836805 18.6875,11.6916667 C18.5677077,11.6996529 18.4399314,11.7355899 18.3041667,11.799479 C18.0166651,11.9432299 17.697224,12.0151043 17.3458333,12.0151043 C17.2899301,12.0151043 17.2000875,12.0111112 17.0763022,12.003125 C16.9525168,11.9951388 16.8506949,11.9911457 16.7708333,11.9911457 C16.6909718,11.9911457 16.6011289,12.0011283 16.5013022,12.0210938 C16.4014751,12.0410591 16.3196184,12.0710069 16.255729,12.1109377 C16.2717014,12.2866328 16.3335932,12.4503465 16.4414062,12.6020833 C16.5492194,12.7538202 16.6869784,12.8336805 16.8546877,12.8416667 C16.9345489,12.8416667 16.9944442,12.8276913 17.034375,12.7997395 C17.0743058,12.7717881 17.1122395,12.7338543 17.1481772,12.6859377 C17.1841148,12.6380207 17.2260414,12.6020833 17.2739583,12.578125 C17.3937506,12.4982635 17.5814223,12.4663192 17.836979,12.4822917 C17.8609377,12.8975714 17.8609377,13.1491316 17.836979,13.236979 C17.8130207,13.3248267 17.7611115,13.4266487 17.68125,13.5424478 C17.6013885,13.658247 17.5534724,13.7600689 17.5375,13.8479167 C17.5295138,13.8878474 17.5155384,13.9657113 17.4955728,14.0815105 C17.4756076,14.1973097 17.4576391,14.2811631 17.4416667,14.3330728 C17.4256942,14.3849829 17.3957467,14.4488711 17.3518228,14.5247395 C17.307899,14.6006079 17.2539934,14.6664928 17.1901043,14.7223957 C17.0623258,14.8262158 16.9225702,14.9000866 16.7708333,14.9440105 C16.6190965,14.9879344 16.4793408,14.9699655 16.3515623,14.8901043 C16.3036457,14.8501736 16.2377608,14.7723097 16.1539062,14.6565105 C16.0700515,14.5407113 15.9961808,14.4548615 15.9322917,14.3989583 C15.8843747,14.3590276 15.8404514,14.3230905 15.800521,14.2911457 C15.7605902,14.2592011 15.7206598,14.219271 15.680729,14.1713543 C15.6407986,14.1234373 15.6108507,14.0855036 15.5908855,14.0575522 C15.57092,14.0296004 15.538976,13.9816844 15.4950522,13.9138022 C15.4511283,13.8459197 15.4171877,13.7960072 15.393229,13.7640623 C15.2973954,13.6282979 15.1276922,13.4805564 14.8841145,13.3208333 C14.6405368,13.1611103 14.482813,13.0413199 14.4109377,12.9614583 C14.3470483,13.0013891 14.3091145,13.0353297 14.2971355,13.0632812 C14.2851562,13.0912329 14.2751736,13.1611106 14.2671877,13.2729167 Z" id="globe-icon" fill="#3C7101" fill-rule="nonzero"></path>
                </g>
            </g>
        </g>
    </g>
</svg>